<?xml version="1.0" encoding="UTF-8" standalone="no"?>
<!-- Created with Inkscape (http://www.inkscape.org/) -->

<svg
   version="1.1"
   id="svg1"
   width="319.5788"
   height="499.99982"
   viewBox="0 0 319.5788 499.99982"
   sodipodi:docname="d8a34850-5c4b-48f7-bdb8-6f0ee9f3bd10.png"
   inkscape:export-filename="Ash.svg"
   inkscape:export-xdpi="96"
   inkscape:export-ydpi="96"
   xmlns:inkscape="http://www.inkscape.org/namespaces/inkscape"
   xmlns:sodipodi="http://sodipodi.sourceforge.net/DTD/sodipodi-0.dtd"
   xmlns="http://www.w3.org/2000/svg"
   xmlns:svg="http://www.w3.org/2000/svg">
  <defs
     id="defs1" />
  <sodipodi:namedview
     id="namedview1"
     pagecolor="#ffffff"
     bordercolor="#000000"
     borderopacity="0.25"
     inkscape:showpageshadow="2"
     inkscape:pageopacity="0.0"
     inkscape:pagecheckerboard="0"
     inkscape:deskcolor="#d1d1d1">
    <inkscape:page
       x="0"
       y="0"
       width="319.5788"
       height="499.99982"
       id="page2"
       margin="0"
       bleed="0" />
  </sodipodi:namedview>
  <g
     id="g2"
     inkscape:label="Ash"
     transform="translate(-343.87225,-449.92792)">
    <path
       id="path1"
       style="display:inline;fill:#000000;fill-opacity:1;stroke-width:1.07263"
       inkscape:label="Hand"
       d="m 507.00977,449.93359 c -5.69064,0.20106 -13.41051,5.78829 -23.85743,21.27344 l -14.34961,61.51953 c 0,0 -4.24307,10.85621 -3.61914,16.97071 0.62393,6.11451 -10.10742,62.39257 -10.10742,62.39257 0,0 -5.24237,5.61564 -6.49023,16.09766 -1.24785,10.48201 -9.48242,29.94922 -9.48242,29.94922 0,0 -12.60363,13.60066 -26.33008,-13.10352 l -17.47071,-44.92187 c 0,0 -17.84295,-27.82727 -33.3164,-27.32813 -15.47344,0.49914 -16.59766,9.35745 -16.59766,9.35742 0,0 -3.4938,15.2245 0.125,19.7168 0,0 6.14993,6.02026 6.76758,9.81446 0.61766,3.79417 13.44727,44.09376 13.44727,44.09374 0,0 15.34894,24.58178 16.09765,35.8125 0.74872,11.23073 4.24387,32.44546 16.59766,45.04883 6.44544,6.57565 10.92045,15.18881 13.72656,21.92383 7.92471,-8.47361 16.43359,-17.25586 16.43359,-17.25586 l -12.28906,28.67188 c 2.83913,4.55247 19.88051,31.66485 24.67969,34.29297 3.42451,1.87532 2.87568,37.34768 2.08398,61.71093 l 17.17969,1 -17.54883,9.3125 c -0.29273,7.47863 -0.53906,12.40821 -0.53906,12.40821 l -6.91601,61.23632 h 160.27148 c 0,0 -1.23545,-44.47071 -4.94141,-49.9414 -2.37341,-3.50363 -2.50129,-25.75457 -2.28711,-41.30274 v -0.002 l -23.34765,-35.01953 23.94922,18.62695 c 1.05922,-4.39905 5.08628,-21.33407 5.39257,-25.77539 0.35295,-5.11774 40.23645,-84.00223 34.23633,-118.76758 l 34.94141,-52.76562 c 0,0 0.70546,-40.41079 -25.76563,-18.35156 l -35.4707,36.17578 c 0,0 -5.29498,-4.0575 -2.29492,-14.29297 3.00006,-10.23549 50.47267,-86.29688 50.47265,-86.29688 0,0 -2.64812,-44.82366 -31.58984,-19.58789 l -24.35351,34.41211 c 0,0 -18.17711,21.7051 -20.82422,32.64649 0,0 -20.09203,23.36847 -14.53907,-4.33399 5.55298,-27.70246 16.91016,-46.41992 16.91016,-46.41992 0,0 7.11133,-18.59321 7.11133,-22.83594 0,-4.24271 17.96875,-43.30078 17.96875,-43.30078 0,0 5.11683,-51.91063 -36.0625,-12.35351 l -26.08008,59.52343 c 0,0 -9.73285,11.3548 -9.98242,21.21289 -0.24957,9.85808 -10.73242,34.19141 -10.73242,34.19141 0,0 -9.10802,11.10565 -11.72852,-5.86523 l 3.36914,-60.52149 12.72656,-49.78906 c 0,0 -2.09638,-29.73596 -15.57421,-29.25977 z" />
  </g>
</svg>
