<?xml version="1.0" encoding="UTF-8" standalone="no"?>
<svg
   version="1.1"
   width="46.710155"
   height="49.427437"
   id="svg962"
   sodipodi:docname="Cryo3D.svg"
   xml:space="preserve"
   inkscape:export-filename="Cryo3D.png"
   inkscape:export-xdpi="1052.2765"
   inkscape:export-ydpi="1052.2765"
   inkscape:version="1.4.2 (ebf0e940d0, 2025-05-08)"
   xmlns:inkscape="http://www.inkscape.org/namespaces/inkscape"
   xmlns:sodipodi="http://sodipodi.sourceforge.net/DTD/sodipodi-0.dtd"
   xmlns:xlink="http://www.w3.org/1999/xlink"
   xmlns="http://www.w3.org/2000/svg"
   xmlns:svg="http://www.w3.org/2000/svg"><defs
     id="defs962"><linearGradient
       id="linearGradient972"
       inkscape:collect="always"><stop
         style="stop-color:#52c5fd;stop-opacity:1;"
         offset="0"
         id="stop971" /><stop
         style="stop-color:#a9eaf7;stop-opacity:1;"
         offset="1"
         id="stop972" /></linearGradient><linearGradient
       id="linearGradient969"
       inkscape:collect="always"><stop
         style="stop-color:#86e2f3;stop-opacity:1;"
         offset="0.25437084"
         id="stop969" /><stop
         style="stop-color:#52c5fd;stop-opacity:1;"
         offset="1"
         id="stop970" /></linearGradient><linearGradient
       id="linearGradient966"
       inkscape:collect="always"><stop
         style="stop-color:#40c6f9;stop-opacity:1;"
         offset="0"
         id="stop965" /><stop
         style="stop-color:#c8f4fb;stop-opacity:1;"
         offset="1"
         id="stop966" /></linearGradient><linearGradient
       id="linearGradient962"
       inkscape:collect="always"><stop
         style="stop-color:#4fc4fd;stop-opacity:1;"
         offset="0"
         id="stop962" /><stop
         style="stop-color:#a9eaf7;stop-opacity:1;"
         offset="1"
         id="stop963" /></linearGradient><linearGradient
       inkscape:collect="always"
       xlink:href="#linearGradient962"
       id="linearGradient963"
       x1="5.7496409"
       y1="32.943253"
       x2="21.234732"
       y2="21.692677"
       gradientUnits="userSpaceOnUse"
       gradientTransform="matrix(1.0446769,0,0,0.9993918,-2.1798103,0.21346905)" /><linearGradient
       inkscape:collect="always"
       xlink:href="#linearGradient966"
       id="linearGradient965"
       x1="24.907194"
       y1="-8.0974932"
       x2="24.907194"
       y2="24.124586"
       gradientUnits="userSpaceOnUse"
       gradientTransform="matrix(1.1812162,-0.00222644,0.00230363,1.1416364,-6.1725653,-1.2286221)" /><linearGradient
       inkscape:collect="always"
       xlink:href="#linearGradient972"
       id="linearGradient967"
       gradientUnits="userSpaceOnUse"
       x1="5.7496409"
       y1="32.943253"
       x2="21.234732"
       y2="21.692677"
       gradientTransform="matrix(-1.0957661,0,0,0.99871228,49.358613,0.66098293)" /><radialGradient
       inkscape:collect="always"
       xlink:href="#linearGradient969"
       id="radialGradient973"
       cx="25.058147"
       cy="18.720049"
       fx="25.058147"
       fy="18.720049"
       r="23.35508"
       gradientTransform="matrix(1,0,0,1.0568293,-1.5780697,-1.7890652)"
       gradientUnits="userSpaceOnUse" /></defs><sodipodi:namedview
     id="namedview962"
     pagecolor="#505050"
     bordercolor="#eeeeee"
     borderopacity="1"
     inkscape:showpageshadow="0"
     inkscape:pageopacity="0"
     inkscape:pagecheckerboard="0"
     inkscape:deskcolor="#505050"
     inkscape:zoom="24.358941"
     inkscape:cx="23.35898"
     inkscape:cy="24.713718"
     inkscape:window-width="2560"
     inkscape:window-height="1408"
     inkscape:window-x="0"
     inkscape:window-y="0"
     inkscape:window-maximized="1"
     inkscape:current-layer="svg962"><inkscape:page
       x="0"
       y="0"
       width="46.710155"
       height="49.427437"
       id="page2"
       margin="0"
       bleed="0" /></sodipodi:namedview><path
     d="m 44.344865,6.1813908 c 1.946843,0.8594288 2.366303,3.0451186 2.36529,4.7740002 -0.01837,29.258959 -0.04315,-2.9223751 -0.04225,24.289 0.007,1.54314 -0.302675,3.057191 -1.443281,4.032187 -0.45052,0.400924 -18.972489,9.173579 -20.633873,9.742505 -1.253225,0.637988 -2.486846,0.456141 -3.640726,-0.0504 -2.729886,-1.198269 -9.479604,-5.316204 -17.926248,-9.22062 -1.9936949,-0.850491 -2.82995999,-2.469556 -2.94293999,-4.503672 -0.0692,-2.26729 -0.050875,-16.07223 -0.0806749969,-24.289 C -0.00534939,9.4442363 0.11354171,7.1512144 2.904022,6.1813908 9.2503323,4.2797658 19.041277,1.0667773 21.254317,0.34939083 c 0.654762,-0.21224976 2.317294,-0.66683743 4.041149,0 0,0 18.494689,5.71694097 19.049399,5.83199997 z"
     fill="#5bb8d6"
     id="path1"
     inkscape:label="path1"
     sodipodi:nodetypes="ccccccscccscc"
     style="opacity:1;fill:url(#radialGradient973);stroke-width:0.0607572" /><path
     style="fill:url(#linearGradient967);fill-opacity:0.996078;stroke:#ffffff;stroke-width:1;stroke-dasharray:none;stroke-opacity:0.15;paint-order:stroke fill markers"
     d="m 45.061155,11.919903 c 0,0 -0.231138,-2.863495 -3.330101,-1.349822 l -15.423445,5.163777 c 0,0 -2.08313,0.766077 -2.091692,3.418906 -0.0085,2.65283 0.06882,23.964954 0.06882,23.964954 0,0 0.196895,4.306946 2.679491,3.027346 l 16.07026,-7.480007 c 0,0 2.130764,-0.507578 2.106552,-3.376501 -0.02422,-2.868921 -0.07988,-23.368653 -0.07988,-23.368653 z"
     id="path962-5"
     sodipodi:nodetypes="cccccccscc"
     inkscape:label="path2" /><path
     style="opacity:1;fill:url(#linearGradient963);fill-opacity:0.996078;stroke:#ffffff;stroke-width:1;stroke-dasharray:none;stroke-opacity:0.15;paint-order:stroke fill markers"
     d="m 1.9172819,11.48005 c 0,0 0.2203615,-2.8654437 3.1748384,-1.35074 L 19.796459,15.2966 c 0,0 1.986007,0.766599 1.994168,3.421233 0.0081,2.654634 0.04842,24.370966 0.04842,24.370966 0,0 -0.167119,4.351132 -2.533935,3.070661 L 4.0067864,37.954422 c 0,0 -2.0314199,-0.507924 -2.0083355,-3.378798 C 2.0215349,31.704751 1.9172819,11.48005 1.9172819,11.48005 Z"
     id="path962"
     sodipodi:nodetypes="cccccccsc"
     inkscape:label="path3" /><path
     style="display:inline;opacity:1;fill:url(#linearGradient965);fill-opacity:0.996078;stroke:#ffffff;stroke-width:1;stroke-dasharray:none;stroke-opacity:0.15;paint-order:stroke fill markers"
     d="m 19.894333,2.3875393 c 0,0 3.014786,-1.3500988 6.566668,-0.3224892 3.551881,1.0276093 13.749167,4.1325718 13.749167,4.1325718 0.715602,0.2674128 2.281745,1.6977748 0.0767,2.5365838 -2.79999,1.0651291 -14.32479,4.7848133 -14.32479,4.7848133 -1.344612,0.444748 -3.054181,1.041456 -5.586012,-0.140835 C 17.107253,11.851749 4.9542597,7.7110711 4.9542597,7.7110711 c 0,0 -1.863145,-0.4575031 -0.2458485,-0.9524767 C 9.4441183,5.3715499 15.12842,3.6737595 19.894333,2.3875393 Z"
     id="path964"
     sodipodi:nodetypes="cscscscsc"
     inkscape:label="path4" /></svg>
